# AST/ASF file generated using VICON BodyLanguage
# -----------------------------------------------
:version 1.10
:name VICON
:units
  mass 1.0
  length 0.45
  angle deg
:documentation
   .ast/.asf automatically generated from VICON data using
   VICON BodyBuilder and BodyLanguage model FoxedUp or BRILLIANT.MOD
:root
   order TX TY TZ RX RY RZ
   axis XYZ
   position 0 0 0  
   orientation 0 0 0 
:bonedata
  begin
     id 1 
     name lhipjoint
     direction 0.623529 -0.717805 0.309788 
     length 2.23224 
     axis 0 0 0  XYZ
  end
  begin
     id 2 
     name lfemur
     direction 0.34202 -0.939693 0  
     length 7.11402  
     axis 0 0 20  XYZ
    dof rx ry rz
    limits (-160.0 20.0)
           (-70.0 70.0)
           (-60.0 70.0)
  end
  begin
     id 3 
     name ltibia
     direction 0.34202 -0.939693 0   
     length 6.78496   
     axis 0 0 20   XYZ
    dof rx
    limits (-10.0 170.0)
  end
  begin
     id 4 
     name lfoot
     direction 0.125078 -0.343648 0.930732   
     length 1.84054   
     axis -90 7.62852e-016 20   XYZ
    dof rx rz
    limits (-45.0 90.0)
           (-70.0 20.0)
  end
  begin
     id 5 
     name ltoes
     direction 1.53565e-011 -4.21893e-011 1   
     length 0.916474   
     axis -90 7.62852e-016 20   XYZ
    dof rx
    limits (-90.0 20.0)
  end
  begin
     id 6 
     name rhipjoint
     direction -0.564688 -0.757748 0.327026   
     length 2.11457  
     axis 0 0 0  XYZ 
  end
  begin
     id 7 
     name rfemur
     direction -0.34202 -0.939693 0   
     length 7.14609   
     axis 0 0 -20   XYZ
    dof rx ry rz
    limits (-160.0 20.0)
           (-70.0 70.0)
           (-70.0 60.0)
  end
  begin
     id 8 
     name rtibia
     direction -0.34202 -0.939693 0   
     length 6.78101   
     axis 0 0 -20   XYZ
    dof rx
    limits (-10.0 170.0)
 end
 begin
     id 9 
     name rfoot
     direction -0.0992671 -0.272734 0.956955   
     length 1.96168  
     axis -90 -7.62852e-016 -20   XYZ
    dof rx rz
    limits (-45.0 90.0)
           (-20.0 70.0)
  end
  begin
     id 10 
     name rtoes
     direction -1.5356e-011 -4.21891e-011 1   
     length 0.982933   
     axis -90 -7.62852e-016 -20   XYZ
    dof rx
    limits (-90.0 20.0)
  end
  begin
     id 11 
     name lowerback
     direction -0.00596953 0.998668 0.0512524   
     length 1.87557   
     axis 0 0 0   XYZ
    dof rx ry rz
    limits (-20.0 45.0)
           (-30.0 30.0)
           (-30.0 30.0)
  end
  begin
     id 12 
     name upperback
     direction 0.00584879 0.999652 0.0257308   
     length 1.87883   
     axis 0 0 0   XYZ
    dof rx ry rz
    limits (-20.0 45.0)
           (-30.0 30.0)
           (-30.0 30.0)
  end
  begin
     id 13 
     name thorax
     direction 0.010104 0.999947 0.00178881   
     length 1.87779   
     axis 0 0 0   XYZ
    dof rx ry rz
    limits (-20.0 45.0)
           (-30.0 30.0)
           (-30.0 30.0)
  end
  begin
     id 14 
     name lowerneck
     direction 0.0120771 0.995934 -0.0892773   
     length 1.40897   
     axis 0 0 0   XYZ
    dof rx ry rz
    limits (-20.0 45.0)
           (-30.0 30.0)
           (-30.0 30.0)
  end
  begin
     id 15 
     name upperneck
     direction -0.030568 0.999465 -0.0116366   
     length 1.38661   
     axis 0 0 0   XYZ
    dof rx ry rz
    limits (-20.0 45.0)
           (-30.0 30.0)
           (-30.0 30.0)
  end
  begin
     id 16
     name head
     direction -0.0170715 0.999854 -0.00104426  
     length 1.47052  
     axis 0 0 0   XYZ
    dof rx ry rz
    limits (-20.0 45.0)
           (-30.0 30.0)
           (-30.0 30.0)
  end
  begin
     id 17 
     name lclavicle
     direction 0.977763 0.206143 0.038532  
     length 3.02424  
     axis 0 0 0   XYZ
    dof ry rz
    limits (-20.0 10.0)
           (0.0 20.0)
  end
  begin
     id 18 
     name lhumerus
     direction 1 -4.48965e-011 -2.62654e-027   
     length 4.68382   
     axis 180 -30 -90   XYZ
    dof rx ry rz
    limits (-60.0 90.0)
           (-90.0 90.0)
           (-90.0 90.0)
  end
  begin
     id 19
     name lradius
     direction 1 -4.48973e-011 -1.54954e-027   
     length 2.98124   
     axis 180 -30 -90   XYZ
    dof rx
    limits (-10.0 170.0)
  end
  begin
     id 20
     name lwrist
     direction 1 -4.48959e-011 7.20928e-028   
     length 1.49062   
     axis -5.52449e-016 90 90   XYZ
    dof ry
    limits (-180.0 0.0)
 end
  begin
     id 21 
     name lhand
     direction 1 -4.48971e-011 1.44186e-027   
     length 0.707595   
     axis -9.20027e-016 90 90   XYZ
    dof rx rz
    limits (-90.0 90.0)
           (-45.0 45.0)
  end
  begin
     id 22 
     name lfingers
     direction 1 -4.48985e-011 2.88371e-027   
     length 0.570481   
     axis -1.84005e-015 90 90   XYZ
    dof rx
    limits (0.0 90.0)
  end
  begin
     id 23
     name lthumb
     direction 0.707107 -6.34929e-011 0.707107   
     length 0.819101   
     axis -90 45 2.85299e-015   XYZ
    dof rx rz
    limits (-45.0 45.0)
           (-45.0 45.0)
  end
  begin
     id 24 
     name rclavicle
     direction -0.958661 0.284411 -0.00895327   
     length 3.11921  
     axis 0 0 0   XYZ 
    dof ry rz
    limits (-10.0 20.0)
           (-20.0 0.0)
  end
  begin
     id 25 
     name rhumerus
     direction -1 -4.48963e-011 -4.22193e-027  
     length 4.75876   
     axis 180 30 90   XYZ
    dof rx ry rz
    limits (-90.0 60.0)
           (-90.0 90.0)
           (-90.0 90.0)
  end
  begin
     id 26 
     name rradius
     direction -1 -4.48968e-011 -1.07616e-027   
     length 2.93293   
     axis 180 30 90   XYZ
    dof rx
    limits (-10.0 170.0)
  end
  begin
     id 27 
     name rwrist
     direction -1 -4.48965e-011 7.20928e-028   
     length 1.46647   
     axis -5.52449e-016 -90 -90   XYZ
    dof ry
    limits (-180.0 0.0)
  end
  begin
     id 28
     name rhand
     direction -1 -4.48971e-011 1.44186e-027   
     length 0.831748   
     axis -9.20027e-016 -90 -90   XYZ
    dof rx rz
    limits (-90.0 90.0)
           (-45.0 45.0)
  end
  begin
     id 29
     name rfingers
     direction -1 -4.48961e-011 2.88371e-027   
     length 0.670577   
     axis -1.84005e-015 -90 -90   XYZ
    dof rx
    limits (0.0 90.0)
  end
  begin
     id 30
     name rthumb
     direction -0.707107 -6.34929e-011 0.707107   
     length 0.962818   
     axis -90 -45 -2.85299e-015   XYZ
    dof rx rz
    limits (-45.0 45.0)
           (-45.0 45.0)
  end
:hierarchy
  begin
    root lhipjoint rhipjoint lowerback
    lhipjoint lfemur
    lfemur ltibia
    ltibia lfoot
    lfoot ltoes
    rhipjoint rfemur
    rfemur rtibia
    rtibia rfoot
    rfoot rtoes
    lowerback upperback
    upperback thorax
    thorax lowerneck lclavicle rclavicle
    lowerneck upperneck
    upperneck head
    lclavicle lhumerus
    lhumerus lradius
    lradius lwrist
    lwrist lhand lthumb
    lhand lfingers
    rclavicle rhumerus
    rhumerus rradius
    rradius rwrist
    rwrist rhand rthumb
    rhand rfingers
  end

#!OML:ASF E:\id_vita\Project 1\Capture day 1\Session 1\Female.ASF
:FULLY-SPECIFIED
:DEGREES
518
root 32.77 13.2256 -0.462605 -45.5414 -86.6154 -259.011
lowerback 6.31688 -4.12382 0.456228
upperback 2.97889 -5.54012 -2.31682
thorax -0.730843 -2.7723 -2.24704
lowerneck -12.4027 4.00789 -7.02284
upperneck -9.0473 6.27815 11.0721
head -1.23618 3.152 4.65828
rclavicle 4.77083e-015 -8.90555e-014
rhumerus 16.8505 35.3153 -76.8691
rradius 52.8062
rwrist 14.3434
rhand -42.8154 629.547
rfingers 7.12502
rthumb -15.6805 61.0682
lclavicle 4.77083e-015 -8.90555e-014
lhumerus 19.2622 -27.3414 49.8408
lradius 56.8047
lwrist -18.0682
lhand -60.535 80.3432
lfingers 7.12502
lthumb -32.661 -827.414
rfemur -86.5541 -3.68981 21.9974
rtibia 105.79
rfoot -21.963 -6.59373
rtoes -9.2088
lfemur -52.1671 -1.94627 -27.9641
ltibia 68.8834
lfoot -29.3591 -7.43014
ltoes -9.64572
519
root 32.6956 13.234 -0.464254 -53.3538 -86.8486 -251.717
lowerback 6.80629 -3.95315 0.259368
upperback 3.06954 -5.3316 -2.3412
thorax -0.883582 -2.67145 -2.14684
lowerneck -12.2853 4.04462 -6.81944
upperneck -8.87021 6.28353 10.7819
head -1.19083 3.1554 4.53215
rclavicle 3.65764e-014 -1.19271e-014
rhumerus 16.6052 35.1171 -77.1361
rradius 53.0461
rwrist 14.096
rhand -41.6862 628.313
rfingers 7.12502
rthumb -14.5929 62.2208
lclavicle 3.65764e-014 -1.19271e-014
lhumerus 19.2984 -27.4716 49.8264
lradius 56.6432
lwrist -17.9519
lhand -60.4814 81.302
lfingers 7.12502
lthumb -32.61 -828.384
rfemur -86.4925 -3.04765 21.8442
rtibia 105.775
rfoot -21.9811 -7.33975
rtoes -9.88793
lfemur -50.9199 -1.60044 -27.9461
ltibia 68.3292
lfoot -29.653 -6.92924
ltoes -10.3658
520
root 32.6605 13.239 -0.465652 -48.6268 -86.7546 -256.101
lowerback 6.68303 -4.02275 0.271455
upperback 2.88811 -5.41704 -2.22355
thorax -0.995742 -2.71311 -2.02697
lowerneck -12.1558 4.09317 -6.76771
upperneck -8.79015 6.33373 10.6444
head -1.18751 3.18118 4.47806
rclavicle 5.56597e-014 3.26007e-014
rhumerus 16.3394 35.1995 -77.1929
rradius 52.9294
rwrist 15.1564
rhand -42.9328 628.768
rfingers 7.12502
rthumb -15.7937 61.8566
lclavicle 5.56597e-014 3.26007e-014
lhumerus 19.1885 -27.5384 50.0633
lradius 56.519
lwrist -18.0566
lhand -60.3676 81.4842
lfingers 7.12502
lthumb -32.5017 -828.588
rfemur -87.7631 -3.06994 21.961
rtibia 105.899
rfoot -22.084 -7.44045
rtoes -10.5259
lfemur -50.9629 -2.0054 -27.7799
ltibia 67.9314
lfoot -29.612 -6.72135
ltoes -10.9823
521
root 32.6155 13.2362 -0.462515 -47.1952 -86.6219 -257.483
lowerback 6.69783 -4.09732 0.198535
upperback 2.90428 -5.51891 -2.18281
thorax -0.98043 -2.76389 -1.93661
lowerneck -12.3297 4.12284 -6.841
upperneck -8.67784 6.38314 10.7007
head -1.13556 3.21455 4.51387
rclavicle 4.77083e-014 -5.56597e-014
rhumerus 16.587 35.5106 -76.9484
rradius 52.8131
rwrist 14.9767
rhand -43.8613 628.968
rfingers 7.12502
rthumb -16.6876 61.7292
lclavicle 4.77083e-014 -5.56597e-014
lhumerus 19.0843 -27.3901 50.1851
lradius 56.4911
lwrist -18.3056
lhand -59.9468 80.4526
lfingers 7.12502
lthumb -32.1012 -827.638
rfemur -88.5808 -3.05038 21.851
rtibia 106.033
rfoot -22.5136 -7.18698
rtoes -10.1004
lfemur -50.6484 -2.40269 -27.693
ltibia 67.5214
lfoot -29.5365 -6.88843
ltoes -10.0791
522
root 32.5678 13.2199 -0.460133 -51.3742 -86.7832 -253.22
lowerback 6.51974 -4.03332 0.174992
upperback 2.96357 -5.43456 -2.19731
thorax -0.817016 -2.72185 -1.96153
lowerneck -12.5081 4.16859 -6.86161
upperneck -8.56999 6.44703 10.7194
head -1.08329 3.25371 4.52978
rclavicle -2.54444e-014 -3.97569e-014
rhumerus 16.9746 35.6892 -76.7915
rradius 52.8122
rwrist 13.7376
rhand -43.1349 629.243
rfingers 7.12502
rthumb -15.9882 61.3972
lclavicle -2.54444e-014 -3.97569e-014
lhumerus 19.1501 -27.2101 50.1112
lradius 56.5034
lwrist -18.4367
lhand -59.5247 79.9693
lfingers 7.12502
lthumb -31.6993 -827.235
rfemur -89.3558 -2.55085 21.7292
rtibia 106.201
rfoot -22.8175 -7.20157
rtoes -9.59875
lfemur -50.2958 -2.46422 -27.5351
ltibia 67.1742
lfoot -29.699 -6.87789
ltoes -10.0471
523
root 32.5082 13.216 -0.459351 -54.4964 -87.0764 -250.138
lowerback 6.44725 -3.90622 0.299769
upperback 2.97107 -5.2565 -2.16206
thorax -0.770399 -2.63202 -2.01367
lowerneck -12.3584 4.20574 -6.78092
upperneck -8.5185 6.47975 10.6092
head -1.0893 3.2679 4.47852
rclavicle -1.145e-013 -9.70069e-014
rhumerus 16.8598 35.5367 -76.9063
rradius 52.8391
rwrist 14.1456
rhand -42.8644 627.835
rfingers 7.12502
rthumb -15.7278 62.7838
lclavicle -1.145e-013 -9.70069e-014
lhumerus 19.19 -27.18 50.2901
lradius 56.4526
lwrist -18.5653
lhand -59.4907 80.1131
lfingers 7.12502
lthumb -31.6669 -827.385
rfemur -89.8252 -2.0428 21.8694
rtibia 106.237
rfoot -22.9238 -7.808
rtoes -9.67615
lfemur -49.7539 -2.42683 -27.2192
ltibia 66.7172
lfoot -29.8576 -6.89131
ltoes -9.40306
524
root 32.4534 13.2192 -0.457784 -56.4859 -87.1637 -247.99
lowerback 6.27387 -3.79484 0.267419
upperback 2.85851 -5.10728 -2.1014
thorax -0.776388 -2.55765 -1.95238
lowerneck -12.185 4.1771 -6.72396
upperneck -8.35782 6.42201 10.5168
head -1.05947 3.24082 4.4359
rclavicle -4.92986e-014 -1.03368e-014
rhumerus 16.5169 35.3601 -77.0274
rradius 52.7064
rwrist 14.8672
rhand -43.561 628.515
rfingers 7.12502
rthumb -16.3985 62.1579
lclavicle -4.92986e-014 -1.03368e-014
lhumerus 19.1354 -27.2673 50.6785
lradius 56.3228
lwrist -18.7658
lhand -59.7307 80.6427
lfingers 7.12502
lthumb -31.8955 -827.87
rfemur -90.6726 -1.77926 21.937
rtibia 106.234
rfoot -21.9596 -9.28122
rtoes -7.49374
lfemur -49.5003 -2.5118 -27.0914
ltibia 66.1912
lfoot -29.8384 -6.89615
ltoes -9.58588
525
root 32.4038 13.2218 -0.455806 -57.2259 -87.0177 -247.047
lowerback 6.09014 -3.78374 0.0873552
upperback 2.792 -5.10085 -2.07924
thorax -0.72543 -2.55545 -1.84089
lowerneck -12.2411 4.15596 -6.70671
upperneck -8.12337 6.38042 10.4077
head -0.975115 3.22961 4.40226
rclavicle -1.59028e-014 -6.04305e-014
rhumerus 16.5842 35.1871 -76.9919
rradius 52.5931
rwrist 15.359
rhand -44.0426 628.672
rfingers 7.12502
rthumb -16.8622 62.0403
lclavicle -1.59028e-014 -6.04305e-014
lhumerus 19.1949 -27.2418 50.7785
lradius 56.2395
lwrist -18.7755
lhand -59.7711 80.7406
lfingers 7.12502
lthumb -31.9339 -827.96
rfemur -91.741 -1.72839 21.8839
rtibia 106.212
rfoot -21.6951 -8.90484
rtoes -6.71138
lfemur -49.2369 -2.75095 -27.1604
ltibia 65.5871
lfoot -29.7978 -6.67267
ltoes -9.7755
526
root 32.3566 13.2261 -0.453589 -54.5268 -86.8407 -249.55
lowerback 5.94384 -3.87559 0.036398
upperback 2.76352 -5.22322 -2.05668
thorax -0.67126 -2.61631 -1.79051
lowerneck -12.3779 4.18885 -6.73132
upperneck -7.96022 6.4226 10.301
head -0.908388 3.26048 4.37913
rclavicle -9.06458e-014 -6.52014e-014
rhumerus 16.9071 35.5277 -76.6939
rradius 52.4581
rwrist 14.563
rhand -44.3708 628.184
rfingers 7.12502
rthumb -17.1782 62.5551
lclavicle -9.06458e-014 -6.52014e-014
lhumerus 19.3636 -27.1302 50.6239
lradius 56.2465
lwrist -18.531
lhand -59.5596 80.765
lfingers 7.12502
lthumb -31.7324 -828.024
rfemur -92.6928 -1.80998 21.9059
rtibia 106.144
rfoot -22.3291 -7.68825
rtoes -8.54123
lfemur -48.968 -3.14965 -27.1524
ltibia 64.9213
lfoot -29.701 -6.45547
ltoes -10.8985
527
root 32.3162 13.2319 -0.452405 -51.9099 -86.6789 -251.817
lowerback 5.82136 -3.94506 0.00733068
upperback 2.56828 -5.31474 -2.01283
thorax -0.800544 -2.66179 -1.72346
lowerneck -12.3353 4.16652 -6.82554
upperneck -7.81453 6.40011 10.3702
head -0.874193 3.25587 4.41549
rclavicle 0 -8.74653e-015
rhumerus 16.8714 35.3463 -76.7688
rradius 52.5262
rwrist 15.0865
rhand -43.9314 626.742
rfingers 7.12502
rthumb -16.7552 63.9613
lclavicle 0 -8.74653e-015
lhumerus 19.2961 -27.2762 50.6609
lradius 56.2834
lwrist -18.247
lhand -59.7667 79.7185
lfingers 7.12502
lthumb -31.9297 -826.939
rfemur -93.7603 -1.89667 21.9383
rtibia 106.097
rfoot -22.8331 -7.05575
rtoes -9.04878
lfemur -48.9365 -3.56796 -27.1399
ltibia 64.2349
lfoot -29.5867 -6.10311
ltoes -12.2751
528
root 32.2533 13.2395 -0.452325 -56.9212 -86.7157 -246.874
lowerback 5.84395 -3.82482 -0.17135
upperback 2.57067 -5.1657 -2.00999
thorax -0.790076 -2.58891 -1.63066
lowerneck -12.3594 4.09813 -6.87844
upperneck -7.59423 6.30717 10.4122
head -0.799448 3.21821 4.43846
rclavicle 5.725e-014 7.95139e-016
rhumerus 16.7887 35.4397 -76.7228
rradius 52.3246
rwrist 15.0926
rhand -44.5279 628.287
rfingers 7.12502
rthumb -17.3293 62.4659
lclavicle 5.725e-014 7.95139e-016
lhumerus 19.3255 -27.4883 50.7552
lradius 56.2032
lwrist -18.1225
lhand -60.1695 76.2834
lfingers 7.12502
lthumb -32.3132 -823.426
rfemur -94.1291 -1.59232 21.8762
rtibia 105.968
rfoot -23.556 -6.98081
rtoes -9.54367
lfemur -48.2303 -3.52441 -27.2162
ltibia 63.4665
lfoot -29.6845 -5.49228
ltoes -13.2809
529
root 32.1963 13.2427 -0.451173 -57.4026 -86.7014 -246.386
lowerback 5.7304 -3.79835 -0.178616
upperback 2.6193 -5.12873 -1.9927
thorax -0.673845 -2.5704 -1.62193
lowerneck -12.5148 4.08888 -6.79391
upperneck -7.34497 6.2742 10.2767
head -0.693732 3.2104 4.38912
rclavicle 4.13472e-014 1.59028e-015
rhumerus 16.892 35.344 -76.6738
rradius 52.1405
rwrist 15.1342
rhand -44.0577 629.11
rfingers 7.12502
rthumb -16.8767 61.6037
lclavicle 4.13472e-014 1.59028e-015
lhumerus 19.686 -27.6718 50.5175
lradius 56.0117
lwrist -17.8658
lhand -60.5642 77.4496
lfingers 7.12502
lthumb -32.6888 -824.515
rfemur -94.6251 -1.46928 21.9127
rtibia 105.814
rfoot -24.0372 -6.74283
rtoes -9.96257
lfemur -47.591 -3.71104 -27.1706
ltibia 62.709
lfoot -29.7745 -5.05058
ltoes -13.4474
530
root 32.145 13.2511 -0.454185 -56.5971 -86.6715 -247.128
lowerback 5.80721 -3.80928 -0.201762
upperback 2.51004 -5.14542 -1.97607
thorax -0.825765 -2.57875 -1.58056
lowerneck -12.3953 4.12569 -6.7472
upperneck -7.20287 6.30926 10.2364
head -0.670953 3.22926 4.36722
rclavicle 7.15625e-014 9.54166e-015
rhumerus 16.8489 35.2374 -76.8226
rradius 51.9904
rwrist 14.9287
rhand -42.7804 628.43
rfingers 7.12502
rthumb -15.6468 62.1829
lclavicle 7.15625e-014 9.54166e-015
lhumerus 19.7734 -27.7941 50.4043
lradius 55.905
lwrist -17.7486
lhand -59.8643 77.7167
lfingers 7.12502
lthumb -32.0226 -824.918
rfemur -95.2485 -1.33388 22.033
rtibia 105.585
rfoot -24.1672 -6.55578
rtoes -10.4646
lfemur -47.0695 -3.874 -27.1005
ltibia 61.9102
lfoot -29.7845 -4.92751
ltoes -13.4056
531
root 32.1004 13.2581 -0.456559 -55.2699 -86.5035 -248.322
lowerback 5.94735 -3.84421 -0.317849
upperback 2.32807 -5.20163 -1.97702
thorax -1.08208 -2.60717 -1.49518
lowerneck -12.1832 4.1296 -6.96832
upperneck -7.11208 6.34066 10.4548
head -0.69085 3.25004 4.46546
rclavicle -1.43125e-014 -4.45278e-014
rhumerus 16.5995 35.1906 -76.9842
rradius 51.8207
rwrist 15.5723
rhand -43.0552 629.579
rfingers 7.12502
rthumb -15.9115 61.0547
lclavicle -1.43125e-014 -4.45278e-014
lhumerus 19.6314 -27.7956 50.6493
lradius 55.7904
lwrist -17.9952
lhand -59.6047 78.2436
lfingers 7.12502
lthumb -31.7755 -825.494
rfemur -96.0106 -1.35952 22.1119
rtibia 105.301
rfoot -24.0423 -6.611
rtoes -10.8588
lfemur -46.6936 -4.10903 -27.1678
ltibia 61.1226
lfoot -29.7037 -4.73431
ltoes -13.8613
